<?xml version="1.0" encoding="utf-8" ?>
<svg xmlns="http://www.w3.org/2000/svg" xmlns:xlink="http://www.w3.org/1999/xlink" width="500" height="500">
	<path fill="#3FA840" transform="scale(0.488281 0.488281)" d="M217.68 312.404C218.885 320.457 218.081 329.416 218.042 337.593L218.016 382.42L218.002 388.216L218.007 449.918L217.947 458.924C212.962 457.849 207.037 452.298 202.894 449.413L199.711 438.647C195.166 434.924 190.063 431.238 186.737 426.342C185.704 417.14 187.06 407.575 188.502 398.5C193.324 368.141 203.553 339.655 217.68 312.404Z"/>
	<path fill="#FEFEFE" transform="scale(0.488281 0.488281)" d="M218.002 388.216L200.143 371.166L218.016 382.42L218.002 388.216Z"/>
	<path fill="#FEFEFE" transform="scale(0.488281 0.488281)" d="M199.711 438.647C206.162 441.36 211.698 446.706 218.007 449.918L217.947 458.924C212.962 457.849 207.037 452.298 202.894 449.413L199.711 438.647Z"/>
	<path fill="#00243A" transform="scale(0.488281 0.488281)" d="M856.515 658.76L960.767 681.147L898.996 730.255C917.841 751.668 931.294 777.789 943.906 803.182L934.624 799.98C906.583 791.147 877.688 782.996 848.872 777.135L782.161 766.705C784.145 765.872 786.411 765.548 788.5 765.023L801.25 761.52L856.71 744.879L856.515 658.76Z"/>
	<path fill="#00243A" transform="scale(0.488281 0.488281)" d="M168.369 658.267L168.643 659.001C169.331 661 169.077 663.751 169.11 665.89L169.036 684.661L169.399 747.807L210.918 758.582C220.094 761.035 229.253 762.97 238.072 766.618L81.7433 802.093C82.4431 798.067 85.3998 792.866 87.2008 789.18C94.0808 775.099 102.126 761.503 111.092 748.645C115.959 741.666 121.533 734.836 126.101 727.708L62.3865 681.306L168.369 658.267Z"/>
	<path fill="#00243A" transform="scale(0.488281 0.488281)" d="M182.777 746.063C186.343 743.652 191.005 742.93 195.156 742.033L213.705 738.159L251.784 729.806L266.889 750.584L274.797 761.64C276.209 763.597 277.821 766.355 279.664 767.893C285.169 775.323 291.316 782.109 297.428 789.034C334.182 830.669 382.871 862.759 434 883.994C449.677 890.505 466.153 895.756 482.334 900.863L508.565 909.404C550.473 898.543 592.788 884.874 631.145 864.548C656.368 851.182 679.283 835.18 700.995 816.709C708.198 810.582 715.387 803.524 721.689 796.472C726.081 791.556 730.005 785.672 735.116 781.502C737.077 780.317 738.95 777.268 740.417 775.5L753.25 759.651C758.339 752.823 764.258 748.896 772 745.627C775.86 743.997 779.437 743.683 783.5 743.098C786.154 742.715 788.672 741.756 791.353 742.545C793.277 743.111 795.283 743.124 797.25 743.594C801.83 744.69 806.204 746.196 810.5 748.096C812.825 749.125 814.044 750.424 815.758 752.253L794.434 757.879C791.204 758.673 786.183 759.051 783.392 760.696C782.846 761.018 781.909 762.488 781.53 763L776.224 770.934L762.005 790.38C753.123 802.268 742.673 813.562 732.082 823.95C705.848 849.681 675.037 871.486 642.432 888.368C611.483 904.391 578.516 916.482 545.248 926.694L528.49 931.778C522.616 933.652 515.722 936.619 509.506 936.493C506.899 936.44 504.04 935.398 501.566 934.615L489.187 930.698L449.588 918.124C421.163 907.943 393.332 895.291 367.252 880.048C330.895 858.799 297.022 831.047 270.166 798.502L253.014 776.398L248.094 769.347C247.121 767.816 246.291 766.038 244.988 764.774C244.504 763.473 243.704 762.731 242.75 761.772L182.777 746.063Z"/>
	<path fill="#91D647" transform="scale(0.488281 0.488281)" d="M841.711 446.787L842.735 442.505C851.911 436.229 862.524 431.454 872.969 427.711C903.691 416.703 937.477 413.929 969.803 410.917C965.353 431.675 961.166 453.205 954.827 473.433C939.923 520.99 912.049 570.025 869.435 597.58L856.511 605.471L856.326 571.6C856.273 565.24 856.7 558.08 855.532 551.858C854.417 551.394 853.477 550.731 852.484 550.059C852.293 549.755 852.202 549.359 851.913 549.146C850.79 548.32 845.788 547.618 844.264 547.231L810.145 538.677C808.427 538.513 806.524 538.294 804.978 537.501L805.044 468.573L804.986 450.643L835.718 425.456C839.695 430.427 840.923 440.531 841.711 446.787Z"/>
	<path fill="#FEFEFE" transform="scale(0.488281 0.488281)" d="M835.718 425.456C839.695 430.427 840.923 440.531 841.711 446.787L825.046 525.856C830.436 521.452 876.935 484.494 877.347 483.687C879.001 480.458 879.445 475.754 880.432 472.229L887.575 447.626C889.096 442.379 890.224 437.134 892.388 432.099C892.368 438.025 890.235 444.515 889.027 450.32C886.936 460.369 885.366 470.52 882.077 480.276L942.609 436.384C938.087 442.861 931.013 448.133 925.252 453.522L894.559 482.246L878.517 497.356L935.499 500.347C928.911 502.155 921.746 501.842 914.961 502.05L884.478 502.679C881.408 502.685 878.18 502.271 875.139 502.504C874.185 502.577 873.393 502.893 872.591 503.408C868.859 505.809 865.534 509.665 862.229 512.658L845.44 527.408C840.887 531.405 836.407 535.598 831.319 538.918L903.427 551.489C898.764 552.336 893.844 551.945 889.113 551.882L866.456 551.586C863.048 551.544 858.826 551.044 855.532 551.858C854.417 551.394 853.477 550.731 852.484 550.059C852.293 549.755 852.202 549.359 851.913 549.146C850.79 548.32 845.788 547.618 844.264 547.231L810.145 538.677C808.427 538.513 806.524 538.294 804.978 537.501L805.044 468.573L804.986 450.643L835.718 425.456Z"/>
	<path fill="#91D647" transform="scale(0.488281 0.488281)" d="M805.044 468.573L814.008 457.944C820.102 450.933 827.153 445.085 834.289 439.19L824.71 504.327L822.912 521.694C822.75 523.43 822.891 526.636 822.289 528.108C822.07 528.642 820.214 529.904 819.642 530.399C816.494 533.126 813.135 535.787 810.145 538.677C808.427 538.513 806.524 538.294 804.978 537.501L805.044 468.573Z"/>
	<path fill="#3FA840" transform="scale(0.488281 0.488281)" d="M168.216 608.971C166.107 606.541 162.198 604.514 159.516 602.634C145.756 592.993 132.7 582.329 121.313 569.936C97.9659 544.526 81.935 512.986 71.7956 480.184C68.2268 468.638 65.6452 456.822 62.9564 445.049L55.2208 411.048L113.737 418.374C134.86 422.093 156.255 428.372 176.105 436.501C185.284 440.261 194.478 444.116 202.894 449.413C207.037 452.298 212.962 457.849 217.947 458.924L218.046 536.282L217.797 536.469L217.258 537.135C216.322 538.175 214.922 538.654 213.627 539.08C210.171 540.217 206.359 540.597 202.808 541.513C193.172 543.998 183.332 547.096 173.504 548.678L173.391 739.67C173.254 741.542 172.919 742.568 173.81 744.25C176.774 745.429 179.631 745.771 182.777 746.063L242.75 761.772C243.704 762.731 244.504 763.473 244.988 764.774C242.672 765.562 240.491 766.196 238.072 766.618C229.253 762.97 220.094 761.035 210.918 758.582L169.399 747.807L169.036 684.661L169.11 665.89C169.077 663.751 169.331 661 168.643 659.001L168.369 658.267C167.242 653.514 167.791 647.413 167.754 642.483C167.671 631.445 167.244 619.961 168.216 608.971Z"/>
	<path fill="#FEFEFE" transform="scale(0.488281 0.488281)" d="M168.216 608.971L169 608.641C170.008 607.219 169.451 556.533 169.45 551L138.367 551.019C130.984 551.062 124.191 551.805 116.83 550.523C140.909 547.881 166.716 546.445 189.897 539.216L164.222 516.075L155.018 507.602C153.885 506.574 151.984 504.668 150.557 504.224C148.964 503.729 145.655 504.111 143.903 504.068L126.802 503.393L89.2649 499.607C94.5091 498.284 101.465 498.989 106.902 498.944C115.461 498.874 124.218 498.323 132.751 499.056L149.032 501.246L104.941 457.739L93.5556 446.593C91.1456 444.25 88.4673 441.984 86.5226 439.237C90.6875 441.39 94.2168 444.988 97.9644 447.827L135.957 477.491L136.334 455.472C136.395 448.43 136.166 441.311 137.424 434.357C138.397 439.119 138.485 444.307 138.93 449.164L141.492 481.81L185.974 520.176L186.062 446.751C187.328 449.177 187.329 452.318 187.518 455L188.571 469.565L192.217 513.113L192.672 522.494C192.701 523.396 192.488 525.246 192.995 525.994C195.127 529.141 199.706 532.258 202.683 534.817C203.234 535.29 204.628 536.781 205.167 536.945C205.321 536.992 207.106 536.427 207.294 536.377C209.849 535.7 214.943 533.662 217.399 534.25L217.797 536.469L217.258 537.135C216.322 538.175 214.922 538.654 213.627 539.08C210.171 540.217 206.359 540.597 202.808 541.513C193.172 543.998 183.332 547.096 173.504 548.678L173.391 739.67C173.254 741.542 172.919 742.568 173.81 744.25C176.774 745.429 179.631 745.771 182.777 746.063L242.75 761.772C243.704 762.731 244.504 763.473 244.988 764.774C242.672 765.562 240.491 766.196 238.072 766.618C229.253 762.97 220.094 761.035 210.918 758.582L169.399 747.807L169.036 684.661L169.11 665.89C169.077 663.751 169.331 661 168.643 659.001L168.369 658.267C167.242 653.514 167.791 647.413 167.754 642.483C167.671 631.445 167.244 619.961 168.216 608.971Z"/>
	<path fill="#00243A" transform="scale(0.488281 0.488281)" d="M217.68 312.404L217.754 311.991C219.151 303.907 218.514 295.404 218.506 287.219L218.48 249.154L255.495 249.101L264.296 249.122C265.529 249.124 267.125 249.358 268.266 248.884C269.289 241.565 270.105 233.969 272.591 226.976C278.337 210.813 290.689 198.319 303.33 187.25L322.25 171.635L347.48 153.807L355.864 167.915C356.84 169.522 357.874 171.92 359.277 173.078C380.686 157.068 403.762 142.811 428.268 132.066C435.712 128.802 443.246 125.517 451.028 123.141L453.024 130.004L482.828 105.636C491.773 98.4808 501.026 91.1477 511.089 85.6282C513.412 85.9289 516.443 88.4355 518.426 89.7344C530.75 97.8092 542.078 107.422 553.5 116.701C558.814 121.018 564.146 125.798 569.932 129.463L572.337 123.329C579.861 124.955 586.776 128.651 593.801 131.714L623.878 145.165C631.792 149.13 639.354 154.041 646.994 158.515L667.344 170.364L678.665 152.186C689.794 160.22 700.175 169.31 710.459 178.384C730.5 196.066 750.191 212.86 754.809 240.685L755.794 249.508L805.032 249.602L804.998 302.054L804.995 314.638C804.998 316.257 804.707 318.354 805.241 319.847C818.097 343.777 828.071 368.311 832.265 395.308L835.718 425.456L804.986 450.643L805.044 468.573L804.978 537.501C803.008 536.218 800.956 536.028 798.75 535.387C793.653 533.907 788.354 533.532 783.25 532.369C781.763 532.031 781.024 531.938 779.5 532.104L779.033 274.998L730.414 275.22L687.283 276.016C684.969 275.625 682.443 274.305 680.406 273.183L615.058 234.661L587.865 218.91C582.833 215.989 577.525 213.308 572.849 209.841L572.288 209.756C570.29 213.382 569.022 217.336 567.124 221C565.43 224.271 563.13 227.274 561.521 230.572L512.675 200.965C506.025 202.251 499.149 208.302 493.419 211.79L462.613 230.449C456.676 224.727 454.498 216.1 450.233 209.304L349.429 268.672L321.713 285.038C318.21 287.09 314.017 290.291 310.246 291.503L289.756 303.329L280.257 308.83L267.631 316.178L261.272 319.816L246.682 328.056C246.681 326.112 247.208 319.972 246.137 318.634L245.339 523.612L245.145 524.031C244.448 526.088 244.942 529.561 244.969 531.783C243.244 531.84 241.918 531.985 240.25 532.383C235.6 533.49 230.817 533.805 226.141 535.146C223.438 535.922 220.828 536.038 218.046 536.282L217.947 458.924L218.007 449.918L218.002 388.216L218.016 382.42L218.042 337.593C218.081 329.416 218.885 320.457 217.68 312.404Z"/>
	<path fill="#DBA15F" transform="scale(0.488281 0.488281)" d="M298.9 274.973L310.246 291.503L289.756 303.329L280.257 308.83L267.631 316.178L261.272 319.816L246.682 328.056C246.681 326.112 247.208 319.972 246.137 318.634L245.695 275.397L298.9 274.973Z"/>
	<path fill="#91D647" transform="scale(0.488281 0.488281)" d="M804.972 378.912L805.241 319.847C818.097 343.777 828.071 368.311 832.265 395.308L835.718 425.456L804.986 450.643L805.016 389.935L804.972 378.912Z"/>
	<path fill="#FEFEFE" transform="scale(0.488281 0.488281)" d="M804.972 378.912C812.304 375.288 818.067 369.916 825.031 365.834C822.262 370.24 818.293 374.239 814.884 378.172L805.016 389.935L804.972 378.912Z"/>
	<path fill="#91D647" transform="scale(0.488281 0.488281)" d="M298.9 274.973C294.98 264.066 293.068 253.699 296.022 242.25C298.518 232.581 304.224 223.664 311.463 216.853C316.369 212.238 321.953 208.393 326.879 203.795C330.206 200.688 333.705 195.568 337.5 193.297C339.945 197.298 342.084 201.65 345.038 205.294C349.7 211.045 355.309 215.907 360.186 221.464C367.141 229.388 370.712 237.952 372.911 248.163C374.928 244.62 376.953 240.586 377.497 236.514C379.159 224.073 373.252 215.122 366.076 205.659L366.22 205.262C368.119 200.944 372.645 196.66 376.013 193.442C391.661 178.497 409.676 167.668 429.211 158.583C428.211 164.84 426.9 171.017 427.899 177.364C430.143 191.62 439.071 201.041 450.233 209.304L349.429 268.672L321.713 285.038C318.21 287.09 314.017 290.291 310.246 291.503L298.9 274.973Z"/>
	<path fill="#91D647" transform="scale(0.488281 0.488281)" d="M572.849 209.841C582.898 201.194 591.562 192.631 592.613 178.649C593.15 171.495 591.278 164.374 588.793 157.71C614.512 167.713 638.541 178.643 654.409 202.302C648.722 212.821 645.265 223.337 648.809 235.25C650.039 239.386 651.442 242.333 654.655 245.25L656.102 246.582C657.01 236.213 659.513 227.027 665.886 218.606C669.27 214.135 673.164 210.048 676.39 205.453C679.517 200.997 681.772 195.885 684.12 190.997L703.185 207.396C716.775 219.105 728.463 229.745 729.931 248.687C730.604 257.375 728.769 266.022 727.762 274.615C728.703 275.265 729.292 275.227 730.414 275.22L687.283 276.016C684.969 275.625 682.443 274.305 680.406 273.183L615.058 234.661L587.865 218.91C582.833 215.989 577.525 213.308 572.849 209.841Z"/>
	<path fill="#91D647" transform="scale(0.488281 0.488281)" d="M450.233 209.304C447.685 190.932 449.119 175.657 460.545 160.505C473.924 142.762 493.836 130.595 511.044 116.969L536.085 136.178C552.409 149.179 568.077 163.42 571.353 185.125C572.59 193.323 572.582 201.486 572.288 209.756C570.29 213.382 569.022 217.336 567.124 221C565.43 224.271 563.13 227.274 561.521 230.572L512.675 200.965C506.025 202.251 499.149 208.302 493.419 211.79L462.613 230.449C456.676 224.727 454.498 216.1 450.233 209.304Z"/>
	<path fill="#00365A" transform="scale(0.488281 0.488281)" d="M251.784 729.806L309.892 719.776L364.302 710.603L403.581 706.29L449.549 703.436L531.97 702.01L583.75 704.527L633.278 707.346L673.719 712.437L729.496 719.391L768.643 726.416L822.212 736.841L838.316 739.987C841.583 740.627 845.474 740.965 848.357 742.712L848.727 742.969L815.758 752.253C814.044 750.424 812.825 749.125 810.5 748.096C806.204 746.196 801.83 744.69 797.25 743.594C795.283 743.124 793.277 743.111 791.353 742.545C788.672 741.756 786.154 742.715 783.5 743.098C779.437 743.683 775.86 743.997 772 745.627C764.258 748.896 758.339 752.823 753.25 759.651L740.417 775.5C738.95 777.268 737.077 780.317 735.116 781.502C730.005 785.672 726.081 791.556 721.689 796.472C715.387 803.524 708.198 810.582 700.995 816.709C679.283 835.18 656.368 851.182 631.145 864.548C592.788 884.874 550.473 898.543 508.565 909.404L482.334 900.863C466.153 895.756 449.677 890.505 434 883.994C382.871 862.759 334.182 830.669 297.428 789.034C291.316 782.109 285.169 775.323 279.664 767.893C277.821 766.355 276.209 763.597 274.797 761.64L266.889 750.584L251.784 729.806Z"/>
	<path fill="#3FA840" transform="scale(0.488281 0.488281)" d="M282.092 767.213C292.051 764.876 302.07 762.744 312.254 761.64C354.708 757.041 397.961 764.508 434.545 787.172C452.625 798.374 468.647 812.093 480.961 829.561C492.018 845.246 500.045 864.956 504.277 883.675L504.735 885.884C505.774 890.491 507.047 894.825 508.871 899.184L511.782 889.562C519.372 855.021 539.398 817.577 569.759 798.122C594.361 782.359 621.866 774.718 650.955 773.286C660.476 772.818 669.982 773.245 679.5 773.324C691.337 773.423 702.272 772.585 713.983 775.119C721.398 776.56 728.06 778.891 735.116 781.502C730.005 785.672 726.081 791.556 721.689 796.472C715.387 803.524 708.198 810.582 700.995 816.709C679.283 835.18 656.368 851.182 631.145 864.548C592.788 884.874 550.473 898.543 508.565 909.404L482.334 900.863C466.153 895.756 449.677 890.505 434 883.994C382.871 862.759 334.182 830.669 297.428 789.034C291.316 782.109 285.169 775.323 279.664 767.893L282.092 767.213Z"/>
	<path fill="#91D647" transform="scale(0.488281 0.488281)" d="M511.782 889.562C519.372 855.021 539.398 817.577 569.759 798.122C594.361 782.359 621.866 774.718 650.955 773.286C660.476 772.818 669.982 773.245 679.5 773.324C691.337 773.423 702.272 772.585 713.983 775.119C713.109 777.013 710.798 778.592 709.242 779.949C703.262 785.163 696.699 789.96 690.054 794.291L656.463 814.25L587.051 854.739L537.5 883.508C529.892 887.96 522.412 893.047 514.59 897.045C524.838 883.109 535.427 868.492 547.337 855.973C569.426 832.753 597.287 814.783 626.796 802.485C635.854 798.71 645.348 796.14 654.607 792.915C660.867 790.736 666.877 788.117 672.941 785.461C666.167 785.638 659.26 785.911 652.598 787.252C644.602 788.862 636.975 791.464 629.338 794.243C604.078 803.433 580.502 817.903 559.832 835.004C552.938 840.708 546.016 846.486 539.846 852.985C534.227 858.903 528.782 865.123 524.048 871.774C520.134 877.272 516.883 885.123 511.782 889.562Z"/>
	<path fill="#91D647" transform="scale(0.488281 0.488281)" d="M282.092 767.213C292.051 764.876 302.07 762.744 312.254 761.64C354.708 757.041 397.961 764.508 434.545 787.172C452.625 798.374 468.647 812.093 480.961 829.561C492.018 845.246 500.045 864.956 504.277 883.675L504.735 885.884L503.927 886.152C500.277 881.307 497.851 875.217 494.458 870.069C485.072 855.827 473.394 843.016 460.797 831.553C448.909 820.735 435.775 810.706 421.572 803.092C403.739 793.532 384.32 787.109 364.7 782.351L351.276 779.215C349.309 778.779 347.63 778.055 345.579 778.15C350.003 780.62 356.508 781.711 361.427 783.346L391.24 794.401C423.112 807.696 453.77 830.398 475.751 857.09C485.656 869.119 494.063 882.134 502.637 895.116L468.732 872.769L415.454 837.407L385.676 817.75C354.684 798.846 321.548 781.634 287.11 770.041C285.46 769.485 282.873 768.772 282.092 767.213Z"/>
	<path fill="#00365A" transform="scale(0.488281 0.488281)" d="M462.613 230.449L493.419 211.79C499.149 208.302 506.025 202.251 512.675 200.965L561.521 230.572C563.13 227.274 565.43 224.271 567.124 221C569.022 217.336 570.29 213.382 572.288 209.756L572.849 209.841C577.525 213.308 582.833 215.989 587.865 218.91L615.058 234.661L680.406 273.183C682.443 274.305 684.969 275.625 687.283 276.016L730.414 275.22L779.033 274.998L779.5 532.104C781.024 531.938 781.763 532.031 783.25 532.369C788.354 533.532 793.653 533.907 798.75 535.387C800.956 536.028 803.008 536.218 804.978 537.501C806.524 538.294 808.427 538.513 810.145 538.677L844.264 547.231C845.788 547.618 850.79 548.32 851.913 549.146C852.202 549.359 852.293 549.755 852.484 550.059L852.532 733.711C852.602 736.173 853.099 739.294 852.131 741.585C851.056 742.648 850.148 742.737 848.727 742.969L848.357 742.712C845.474 740.965 841.583 740.627 838.316 739.987L822.212 736.841L768.643 726.416L729.496 719.391L673.719 712.437L633.278 707.346L583.75 704.527L531.97 702.01L449.549 703.436L403.581 706.29L364.302 710.603L309.892 719.776L251.784 729.806L213.705 738.159L195.156 742.033C191.005 742.93 186.343 743.652 182.777 746.063C179.631 745.771 176.774 745.429 173.81 744.25C172.919 742.568 173.254 741.542 173.391 739.67L173.504 548.678C183.332 547.096 193.172 543.998 202.808 541.513C206.359 540.597 210.171 540.217 213.627 539.08C214.922 538.654 216.322 538.175 217.258 537.135L217.797 536.469L218.046 536.282C220.828 536.038 223.438 535.922 226.141 535.146C230.817 533.805 235.6 533.49 240.25 532.383C241.918 531.985 243.244 531.84 244.969 531.783C244.942 529.561 244.448 526.088 245.145 524.031L245.339 523.612L246.137 318.634C247.208 319.972 246.681 326.112 246.682 328.056L261.272 319.816L267.631 316.178L280.257 308.83L289.756 303.329L310.246 291.503C314.017 290.291 318.21 287.09 321.713 285.038L349.429 268.672L450.233 209.304C454.498 216.1 456.676 224.727 462.613 230.449Z"/>
	<path fill="#FEFEFE" transform="scale(0.488281 0.488281)" d="M519.992 316.498L565.049 316.503L565.052 367.513L520.074 367.502L519.992 316.498Z"/>
	<path fill="#FEFEFE" transform="scale(0.488281 0.488281)" d="M520.07 379.495L565.295 379.506L565.048 430.513L520.021 430.503L520.07 379.495Z"/>
	<path fill="#FEFEFE" transform="scale(0.488281 0.488281)" d="M459.983 316.498L505.508 316.488L505.546 367.511L459.988 367.288L459.983 316.498Z"/>
	<path fill="#FEFEFE" transform="scale(0.488281 0.488281)" d="M459.983 379.498L505.509 379.489L505.513 430.508L459.991 430.504L459.983 379.498Z"/>
	<path fill="#3ECCB8" transform="scale(0.488281 0.488281)" d="M588.451 532.812L615.075 534.551L614.931 679.64L588.321 677.909L588.451 532.812Z"/>
	<path fill="#3FA840" transform="scale(0.488281 0.488281)" d="M589.805 620.753L613.485 625.226L613.422 678.367L589.524 677.031L589.805 620.753Z"/>
	<path fill="#3ECCB8" transform="scale(0.488281 0.488281)" d="M273.389 553.16L274.396 553.506C275.96 558.96 274.996 567.025 274.98 572.797L251.024 577.231L250.967 704.835C242.423 707.333 232.873 709.194 224.032 710.123L224.016 679.75L223.986 582.708L197.041 588.818L196.971 569.212L273.389 553.16Z"/>
	<path fill="#3FA840" transform="scale(0.488281 0.488281)" d="M248.219 651.032L248.917 651.25C250.112 654.803 249.601 659.928 249.663 663.682L249.467 703.779L226.517 708.774L225.908 708.486C223.927 705.801 224.875 665.163 224.875 658.284L248.219 651.032Z"/>
	<path fill="#3ECCB8" transform="scale(0.488281 0.488281)" d="M627.202 535.34L711.514 545.071L711.5 565.203L683.594 560.369L683.499 654.25L683.489 686.676L655.996 683.893L655.893 557.986L627.3 555.296L627.202 535.34Z"/>
	<path fill="#3FA840" transform="scale(0.488281 0.488281)" d="M657.93 631.221L681.989 636.208L681.503 685.263L657.541 683.419L657.93 631.221Z"/>
	<path fill="#B49E51" transform="scale(0.488281 0.488281)" d="M561.521 230.572C563.13 227.274 565.43 224.271 567.124 221C569.022 217.336 570.29 213.382 572.288 209.756L572.849 209.841C577.525 213.308 582.833 215.989 587.865 218.91L615.058 234.661L680.406 273.183C682.443 274.305 684.969 275.625 687.283 276.016L688.048 276.661C688.836 277.319 689.643 277.833 690.5 278.395L691.151 278.846C696.969 282.794 703.247 286.009 709.25 289.653L739.193 308.107C744.564 311.274 750.666 313.911 755.75 317.44C757.024 318.325 757.965 319.372 758.911 320.588C759.61 330.085 759.156 339.037 757.968 348.492L561.521 230.572Z"/>
	<path fill="#3FA840" transform="scale(0.488281 0.488281)" d="M173.391 739.67C180.784 738.714 188.031 736.533 195.281 734.835L230.555 726.907L291.466 715.483L349.456 704.792C468.82 687.456 590.581 690.156 709.786 707.716L749.988 714.681L852.532 733.711C852.602 736.173 853.099 739.294 852.131 741.585C851.056 742.648 850.148 742.737 848.727 742.969L848.357 742.712C845.474 740.965 841.583 740.627 838.316 739.987L822.212 736.841L768.643 726.416L729.496 719.391L673.719 712.437L633.278 707.346L583.75 704.527L531.97 702.01L449.549 703.436L403.581 706.29L364.302 710.603L309.892 719.776L251.784 729.806L213.705 738.159L195.156 742.033C191.005 742.93 186.343 743.652 182.777 746.063C179.631 745.771 176.774 745.429 173.81 744.25C172.919 742.568 173.254 741.542 173.391 739.67Z"/>
	<path fill="#3ECCB8" transform="scale(0.488281 0.488281)" d="M459.522 532.21L464.994 531.984L464.658 552.476L419.134 555.071L419.19 594.019L455.109 591.813L455.123 614.482L418.976 616.544L419.012 658.54L463.438 655.998L463.471 664.614L463.027 677.471L390.999 683.147L391.368 537.047L459.522 532.21Z"/>
	<path fill="#3FA840" transform="scale(0.488281 0.488281)" d="M415.537 617.229C416.116 617.108 416.585 617.191 417.169 617.25C418.316 620.846 417.468 626.662 417.513 630.512L418.074 660.054L462.074 656.8L462.057 676.521L438.266 678.043L392.521 682.102L392.602 619.506L415.537 617.229Z"/>
	<path fill="#3ECCB8" transform="scale(0.488281 0.488281)" d="M523.531 641.58C525.595 638.919 543.523 543.41 546.241 530.698L572.764 532.03C572.382 538.044 570.832 544.067 569.627 549.967L564.179 576.726L544.287 676L503.736 675.487C502.612 673.479 502.565 670.18 502.106 667.877L496.605 638.664L483.602 569L476.731 531.673L504.774 530.49L514.45 586.5C516.626 598.708 519.562 611.057 520.121 623.465L523.531 641.58Z"/>
	<path fill="#3FA840" transform="scale(0.488281 0.488281)" d="M523.531 641.58C522.957 643.206 523.394 644.822 523.647 646.48L524.25 646.471L531.8 612.383L555.262 614.591L542.999 675.165L504.381 674.232C502.551 669.288 502.184 662.481 501.226 657.154L493.262 612.644L517.224 610.947L519.922 622.872L520.121 623.465L523.531 641.58Z"/>
	<path fill="#DBA15F" transform="scale(0.488281 0.488281)" d="M730.414 275.22L779.033 274.998L779.5 532.104C778.125 532.618 776.322 532.057 774.899 531.794L762.25 529.036L730.001 522.782L730.009 398.906L757.971 415.229L757.968 348.492C759.156 339.037 759.61 330.085 758.911 320.588C757.965 319.372 757.024 318.325 755.75 317.44C750.666 313.911 744.564 311.274 739.193 308.107L709.25 289.653C703.247 286.009 696.969 282.794 691.151 278.846L690.5 278.395C689.643 277.833 688.836 277.319 688.048 276.661L687.283 276.016L730.414 275.22Z"/>
	<path fill="#3ECCB8" transform="scale(0.488281 0.488281)" d="M747.948 553.185L752.447 552.861C767.747 552.693 786.975 556.574 798.12 567.88C802.056 571.872 804.582 576.642 805.53 582.171C806.409 587.289 806.082 592.688 806.079 597.868L806.035 621.462L805.496 711.148L778.486 705.72L778.477 671.875L778.509 661.718L749.535 656.23L749.442 697.234C747.387 697.916 727.261 693.888 723.005 693.258L722.655 613.087L722.595 589.478C722.591 583.743 722.441 577.905 723.327 572.22C723.893 568.591 725.111 565.382 727.36 562.429C732.596 555.556 739.941 554.294 747.948 553.185Z"/>
	<path fill="#00365A" transform="scale(0.488281 0.488281)" d="M755.106 572.487L766.016 573.199C770.219 573.781 774.249 575.088 776.785 578.707C777.661 579.958 778.199 581.49 778.367 583C779.281 591.193 778.514 599.761 778.59 607.995L778.875 623.422C778.931 626.422 779.207 629.678 778.658 632.628C778.142 635.397 776.762 636.539 774.477 637.989L750.079 632.227L750.008 591.503C750.007 587.488 749.182 581.265 750.15 577.454C750.838 574.749 752.879 573.809 755.106 572.487Z"/>
	<path fill="#3FA840" transform="scale(0.488281 0.488281)" d="M724.526 640.84L804.011 652.66L804.028 710.482L779.908 705.32L779.975 694.117L779.988 661.114L747.984 654.772L748.091 696.297L724.485 692.339L724.526 640.84Z"/>
	<path fill="#3ECCB8" transform="scale(0.488281 0.488281)" d="M322.052 642.027L313.994 643.666L313.987 692.795L286.484 697.673L286.394 550.008L321.298 545.183C330.427 543.807 340.655 541.107 349.808 541.522C354.461 541.732 358.2 542.688 361.986 545.538C367.584 549.751 370.474 556.212 371.315 563.028C372.23 570.451 371.612 578.195 371.557 585.653C371.493 594.209 372.409 602.806 370.608 611.25L370.427 612.148C368.449 621.625 361.988 629.078 354.012 634.204L351.625 635.614L354.745 643.543C357.667 647.725 359.905 653.154 362.209 657.719L376.054 684.909L347.467 688.199L332.301 657.229C329.966 652.449 327.662 646.239 324.5 642.015L322.052 642.027Z"/>
	<path fill="#00365A" transform="scale(0.488281 0.488281)" d="M335.263 564.707C336.683 564.5 337.647 564.365 339 565.043C341.719 566.406 342.947 570.138 343.512 572.899C344.554 577.983 344.134 583.404 344.118 588.562C344.096 595.64 345.527 607.874 341.425 613.665C337.609 619.053 329.468 619.55 323.491 620.356L314.172 621.569L314.024 567.153L335.263 564.707Z"/>
	<path fill="#3FA840" transform="scale(0.488281 0.488281)" d="M322.052 642.027L313.169 642.481L313.168 691.983L287.966 696.615L287.804 636.622C294.942 635.92 301.962 634.458 309.055 633.439C321.96 631.585 335.506 630.596 347.924 626.419C354.606 624.172 360.887 620.387 367.415 617.657C366.062 620.203 364.713 623.005 362.888 625.25C359.469 629.456 354.5 632.288 349.964 635.098C350.83 636.736 353.39 642.748 354.745 643.543C357.667 647.725 359.905 653.154 362.209 657.719L376.054 684.909L347.467 688.199L332.301 657.229C329.966 652.449 327.662 646.239 324.5 642.015L322.052 642.027Z"/>
	<defs>
		<linearGradient id="gradient_0" gradientUnits="userSpaceOnUse" x1="372.09677" y1="194.17842" x2="296.61545" y2="541.49994">
			<stop offset="0" stop-color="#AA9C4E"/>
			<stop offset="1" stop-color="#E4A362"/>
		</linearGradient>
	</defs>
	<path fill="url(#gradient_0)" transform="scale(0.488281 0.488281)" d="M450.233 209.304C454.498 216.1 456.676 224.727 462.613 230.449L269.195 345.35C268.572 350.007 268.849 413.255 269.296 414.117L297.545 397.309L297.535 521.939L245.378 532.118L245.339 523.612L246.137 318.634C247.208 319.972 246.681 326.112 246.682 328.056L261.272 319.816L267.631 316.178L280.257 308.83L289.756 303.329L310.246 291.503C314.017 290.291 318.21 287.09 321.713 285.038L349.429 268.672L450.233 209.304Z"/>
	<path fill="#FEFEFE" transform="scale(0.488281 0.488281)" d="M511.612 220.427C514.673 220.806 520.599 225.373 523.417 227.065L554.08 245.441L740.059 356.707L740.212 386.004L513.048 252.915L512.478 252.713C505.94 254.391 499.225 259.86 493.344 263.291L450.5 288.49L285.499 386.21L285.526 353.483L511.612 220.427Z"/>
	<path fill="#3ECCB8" transform="scale(0.488281 0.488281)" d="M421.518 324.645C422.523 325.71 422.449 329.241 422.495 330.729L422.601 388.555L422.508 506.717C421.236 507.515 418.66 507.441 417.152 507.61L402.406 509.304L314.573 519.653C313.584 518.662 313.555 518.137 313.483 516.75C312.777 503.077 313.479 488.972 313.479 475.265L313.476 388.014L421.518 324.645Z"/>
	<path fill="#FEFEFE" transform="scale(0.488281 0.488281)" d="M370.511 450.761L396.048 450.747L396.003 481.514L370.49 481.501L370.511 450.761Z"/>
	<path fill="#FEFEFE" transform="scale(0.488281 0.488281)" d="M339.988 450.495L366.001 450.504L365.521 481.463L339.994 481.504L339.988 450.495Z"/>
	<path fill="#FEFEFE" transform="scale(0.488281 0.488281)" d="M370.896 413.001L396.462 413L396.049 445.774L370.954 446.017L370.896 413.001Z"/>
	<path fill="#FEFEFE" transform="scale(0.488281 0.488281)" d="M340.484 413.02L366.41 412.996L366.034 445.962L340.46 446.006L340.484 413.02Z"/>
	<path fill="#3ECCB8" transform="scale(0.488281 0.488281)" d="M599.969 324.215L711.579 388.725L711.661 519.645L599.961 506.998L599.969 324.215Z"/>
	<path fill="#FEFEFE" transform="scale(0.488281 0.488281)" d="M626.513 450.497L652.894 450.498L652.516 481.46L626.495 481.503L626.513 450.497Z"/>
	<path fill="#FEFEFE" transform="scale(0.488281 0.488281)" d="M657.511 450.496L684.522 450.504L684.504 481.505L657.522 481.5L657.511 450.496Z"/>
	<path fill="#FEFEFE" transform="scale(0.488281 0.488281)" d="M628.519 412.745L653.015 412.726L653.006 434.037C653.002 437.689 653.369 441.67 652.755 445.25L651.625 445.512L626.496 445.499L626.467 423.678C626.466 420.223 626.061 416.36 626.75 412.993L628.519 412.745Z"/>
	<path fill="#FEFEFE" transform="scale(0.488281 0.488281)" d="M657.516 412.757L684.518 412.741L684.482 445.765L657.539 445.766L657.516 412.757Z"/>
</svg>
